<?xml version="1.0" encoding="UTF-8"?>
<svg version="1.1" xmlns="http://www.w3.org/2000/svg" width="512" height="512">
<path d="M0 0 C5.19677976 3.14483239 8.34620242 8.03506882 10.875 13.4375 C12.28934856 20.36780794 11.58307836 26.58979769 9.32421875 33.2734375 C9.08675934 34.01055466 8.84929993 34.74767181 8.60464478 35.50712585 C8.08410904 37.11736274 7.55768092 38.72570417 7.02603149 40.33230591 C6.16702308 42.93709254 5.33075266 45.54832655 4.4987793 48.16186523 C1.53107061 57.43772637 -1.54008635 66.67301827 -4.75213718 75.86713409 C-6.58773108 81.12363358 -8.38937943 86.39110884 -10.17260647 91.66559601 C-11.27763723 94.92583996 -12.40169014 98.1767123 -13.57241821 101.41400146 C-20.23512138 117.95071849 -20.23512138 117.95071849 -18.14453125 134.93359375 C-17.03232626 137.2097702 -15.80509023 139.32048339 -14.5 141.5 C-13.80228148 143.15390782 -13.12223723 144.81624139 -12.5 146.5 C-9.73445092 145.47279606 -7.3653771 144.41345671 -4.875 142.8125 C-4.09125 142.379375 -3.3075 141.94625 -2.5 141.5 C-1.51 141.83 -0.52 142.16 0.5 142.5 C0.335 143.36625 0.17 144.2325 0 145.125 C-2.64772991 164.8841784 2.21279817 183.92400265 14.3125 199.8125 C26.40184194 213.90904185 42.18209559 224.10674268 61.06201172 225.71875 C81.39705547 226.87558804 99.91724087 222.73346672 115.71630859 209.36572266 C129.26609825 197.1880636 137.7119664 180.73794273 139.5 162.5 C139.81995766 155.41041182 139.5996379 148.51019158 138.5 141.5 C143.03456977 142.0334788 145.78506014 143.9408192 149.5 146.5 C150.16 146.5 150.82 146.5 151.5 146.5 C156.3221344 140.09040189 160.19015807 132.7984905 159.2822876 124.51312256 C157.37707773 114.32202739 153.37603505 104.4930064 149.82865906 94.78753662 C146.90308646 86.76164345 144.22926039 78.66437832 141.6328125 70.52734375 C141.32825071 69.57302271 141.32825071 69.57302271 141.01753616 68.59942245 C140.20028581 66.03625934 139.38418921 63.47273427 138.57000923 60.90859413 C137.16904156 56.49682537 135.7545148 52.0896037 134.33251953 47.68457031 C133.95231659 46.50625137 133.57211365 45.32793243 133.1803894 44.11390686 C132.46265257 41.89044086 131.74435838 39.66715468 131.02542114 37.44407654 C130.54732498 35.95908409 130.54732498 35.95908409 130.05957031 34.4440918 C129.78123352 33.58180466 129.50289673 32.71951752 129.21612549 31.83110046 C126.91946965 24.35512653 126.20416132 17.57162821 129.5 10.25 C132.69452887 4.4542119 137.21947278 0.59350907 143.5 -1.5 C151.88988422 -2.36189968 158.24908139 -2.02021713 165.4140625 2.6015625 C171.23019333 7.89489505 173.11540381 14.57748654 175.44921875 21.875 C175.81966309 23.0084082 176.19010742 24.14181641 176.57177734 25.30957031 C177.57768532 28.39521864 178.57511786 31.48343242 179.56777573 34.57336426 C180.39783404 37.15389899 181.23342013 39.73263047 182.0688448 42.31143188 C184.23978787 49.01386526 186.3966708 55.72074575 188.54845142 62.42935181 C190.03984532 67.07576264 191.54205571 71.71856507 193.05078125 76.359375 C195.06695459 82.56120843 197.06750959 88.76792434 199.05654907 94.97851562 C199.80597654 97.31203606 200.5599719 99.64409478 201.31869507 101.97460938 C202.37625454 105.22876492 203.41500356 108.48836238 204.44921875 111.75 C204.76076904 112.69552734 205.07231934 113.64105469 205.39331055 114.61523438 C207.82677122 122.40342993 208.99428722 130.12556778 205.796875 137.87890625 C205.20652466 139.3484375 205.20652466 139.3484375 204.60424805 140.84765625 C204.15734619 141.90855469 203.71044434 142.96945312 203.25 144.0625 C202.52034964 145.85363072 201.7907125 147.64476684 201.06132507 149.43600464 C200.21379395 151.50823145 199.35762333 153.57674781 198.50048828 155.64501953 C196.14101539 161.35203861 193.83714558 167.08133891 191.52734375 172.80859375 C190.19373736 176.106788 188.85891533 179.40448632 187.52331543 182.70187378 C186.6395979 184.88377099 185.75669107 187.06599675 184.87463379 189.24856567 C173.30723305 217.82734824 161.10606616 239.05337149 131.5 251.70703125 C93.27412817 267.2301919 47.95261387 268.15301293 9.5 252.5 C-0.29571144 248.26369739 -9.16435427 243.21217299 -17.5 236.5 C-18.21542969 235.94828125 -18.93085938 235.3965625 -19.66796875 234.828125 C-28.24736485 227.85840283 -33.31043204 219.47637729 -37.51171875 209.43359375 C-38.08450058 208.08041801 -38.08450058 208.08041801 -38.66885376 206.6999054 C-43.7812116 194.55546043 -48.69004036 182.32660352 -53.6050415 170.10131836 C-54.64284163 167.52174954 -55.68311672 164.94318196 -56.72343254 162.36462688 C-57.98082462 159.24744986 -59.23649885 156.12958238 -60.4921875 153.01171875 C-60.95156708 151.87208176 -61.41094666 150.73244476 -61.88424683 149.55827332 C-62.72919256 147.45611139 -63.56844643 145.35164879 -64.40081787 143.24447632 C-65.06555308 141.58474225 -65.75155202 139.9330136 -66.47662354 138.29873657 C-70.09701047 129.83298102 -68.80127552 121.90561944 -65.921875 113.421875 C-65.64307495 112.56047409 -65.3642749 111.69907318 -65.07702637 110.81156921 C-64.14835607 107.95304349 -63.19928926 105.10173798 -62.25 102.25 C-61.58679323 100.22320268 -60.92504645 98.19592713 -60.26464844 96.16821289 C-58.81796753 91.73071642 -57.36381397 87.29574903 -55.90625 82.86181641 C-53.5163735 75.57261888 -51.1737553 68.26876679 -48.8392868 60.961689 C-47.48235419 56.71535399 -46.1222487 52.47003389 -44.76260757 48.22456551 C-43.64693992 44.74052784 -42.53226888 41.25617858 -41.4197998 37.77111816 C-40.16580237 33.84425681 -38.90352862 29.92009979 -37.640625 25.99609375 C-37.26619263 24.81996017 -36.89176025 23.6438266 -36.50598145 22.43205261 C-33.37071468 12.72424314 -30.31609871 4.35335896 -20.78125 -0.76953125 C-14.33016523 -2.83520394 -6.24912238 -2.6971164 0 0 Z " fill="#000000" transform="translate(186.5,210.5)"/>
<path d="M0 0 C12.18051314 10.62669401 20.84525381 24.87935986 22.35839844 41.20581055 C23.39058536 60.77526933 19.85947234 76.6101796 6.9375 91.8125 C-5.08899945 104.64479506 -20.73099557 112.43369518 -38.37207031 113.09228516 C-56.45654818 113.34780182 -72.54242395 107.44391229 -85.76269531 94.94482422 C-97.34226505 83.48595611 -104.00122005 68.78374395 -104.25561523 52.46630859 C-104.23691391 42.58713118 -104.02229837 33.84355339 -99.875 24.6875 C-99.38902344 23.6046875 -98.90304688 22.521875 -98.40234375 21.40625 C-90.89820518 6.22057006 -78.94241711 -4.62808935 -63.1875 -10.75 C-40.96311884 -17.86570099 -18.56745514 -14.449879 0 0 Z " fill="#000000" transform="translate(296.875,317.3125)"/>
<path d="M0 0 C168.96 0 337.92 0 512 0 C512 106.92 512 213.84 512 324 C475.37 324 438.74 324 401 324 C400.67 320.7 400.34 317.4 400 314 C433.99 314 467.98 314 503 314 C503 213.35 503 112.7 503 9 C339.98 9 176.96 9 9 9 C9 109.65 9 210.3 9 314 C42.99 314 76.98 314 112 314 C111.67 317.3 111.34 320.6 111 324 C74.37 324 37.74 324 0 324 C0 217.08 0 110.16 0 0 Z " fill="#000000" transform="translate(0,15)"/>
<path d="M0 0 C1.49521363 0.9660088 2.95031857 1.99520453 4.375 3.0625 C35.20659471 25.84700171 80.04679352 29.24329179 116.6875 23.75 C136.81353044 20.40017525 155.90369482 14.00673905 172.61181641 2.06176758 C175.96825747 -0.22744475 177.72010768 -1.01111589 181.8359375 -0.84765625 C185 0 185 0 186.9375 1.125 C188.69937187 4.23418565 188.48159369 6.50844577 188 10 C170.12659768 30.51892396 133.78836639 38.83055756 108 41 C101.44205572 41.35255781 94.87795138 41.34128031 88.3125 41.3125 C87.42782043 41.31034485 86.54314087 41.3081897 85.63165283 41.30596924 C72.87400552 41.2560682 60.46395801 40.96926054 48 38 C47.12859375 37.80132324 46.2571875 37.60264648 45.359375 37.39794922 C25.81010472 32.84168598 4.40777417 25.38844291 -11 12 C-12.52491998 8.95016004 -12.23562548 6.3576631 -12 3 C-8.79041278 -1.37670985 -4.94406936 -1.63876456 0 0 Z " fill="#000000" transform="translate(168,456)"/>
<path d="M0 0 C6.6 0 13.2 0 20 0 C20.66 2.97 21.32 5.94 22 9 C21 10 21 10 17.18359375 10.09765625 C15.60153318 10.09098089 14.01948841 10.07901875 12.4375 10.0625 C11.63119141 10.05798828 10.82488281 10.05347656 9.99414062 10.04882812 C7.99606244 10.03700518 5.99802217 10.01906914 4 10 C0 3.375 0 3.375 0 0 Z " fill="#000000" transform="translate(317,329)"/>
<path d="M0 0 C6.6 0 13.2 0 20 0 C18.57360406 7.1319797 18.57360406 7.1319797 16 10 C13.0860166 10.62337407 10.27508553 10.47047216 7.3125 10.3125 C6.51521484 10.28994141 5.71792969 10.26738281 4.89648438 10.24414062 C2.93018666 10.18526944 0.96485509 10.09558755 -1 10 C-2.62610337 5.77213125 -1.65453403 4.96360209 0 0 Z " fill="#000000" transform="translate(175,329)"/>
</svg>
